<?xml version="1.0" encoding="UTF-8"?><svg id="Layer_1" xmlns="http://www.w3.org/2000/svg" width="842.99" height="852.24" viewBox="0 0 842.99 852.24"><defs><style>.cls-1{stroke-width:0px;}</style></defs><path class="cls-1" d="M580.87,394.08c6.55.43,11.01,3.67,15.53,8.3,9.98,10.2,17.4,22.26,26.97,32.68,3.92,4.27,6.83,9.46,12.01,12.61,2.15,3.16,4.49,6.17,8.03,8.08,1.99,1.63,3.38,4,6.18,4.62l-.19.11c3.58,4.48,7.16,8.94,6.05,15.17-.26,1.46.62,2.61,1.57,3.71,5.63,6.4,8.04,14.32,10.71,22.02,2.48,7.14.89,14.46-2.42,20.82-3.54,6.79-4.32,14.02-6.07,21.12-1.21,4.92-2.37,9.88-2.93,14.89-.29,2.58.54,5.4,1.36,7.95.68,2.14,3.4,2.48,5.34.62,5.05-4.87,11.28-8.55,15.48-14.27,1.06-1.44,2.68-2.28,4.24-3.13,1.07-.58,2.31-.97,3.32.03,1.11,1.1.31,2.18-.44,3.07-4.44,5.28-9.12,10.36-14.84,14.42-5.46,3.88-10.86,7.89-17.67,9.53-1.69.41-2.07,2.06-2.42,3.56-.62,2.69-1.29,5.38-1.92,8.07-.46,1.94-.99,2.4-3.01.95-4.43-3.21-7.18-7.93-11.72-11.1-9.22-6.44-18.76-12.43-29.02-17.07-7.62-3.45-16.01-5.34-24.54-6.1-2.94-.27-5.87-.52-9.19-.81.81-1.83,2.19-1.91,3.34-2.25,3.79-1.11,7.63-2.12,11.04-4.06,10.56-6,22.41-6.84,34.15-8.04,5.22-.53,10.53-.24,15.62-1.82,2.47-.77,4.08-2.18,4.62-4.75.89-4.2-.14-6.23-4.53-7.04-5.74-1.06-11.55-2.11-17.37-2.41-15.69-.82-31.28.7-46.73,3.3-2.92.49-5.85,1.33-8.59,2.43-16.31,6.6-33.35,10.4-50.81,12.79-11.16,1.53-21.69,5.65-32.71,7.82-7.26,1.44-14.48,3.06-21.68,4.76-1.62.38-1.89-.23-2.58-1.39-1.31-2.2-1.78-5.11-4.87-6.04-5.43-1.65-9.55.44-10.66,5.94-.58,2.84-1.83,3.73-4.74,3.86-17.96.77-35.75,2.63-53.09,7.5-1.27.36-2.39.5-3.7-.4-.95-.65-2.44-.58-3.72-.7-.39-.04-1.01.25-1.21.57-2.81,4.55-10.69,2.68-11.89,10.25-2.06,13.04-5.93,25.81-8.88,38.73-2.08,9.15-5.18,17.93-9.32,26.4-.6,1.22-1.53,2.33-1.41,3.83,3.53-1.81,3.57-1.81,4.07,2.12.25,1.95.81,3.6,3,4.26.34.1.84.22.94.46,1.73,4.11,4.2,1.27,6.52.74,5.68-1.32,11.28-2.87,16.76-4.79,3.66-1.28,7.08-3.52,11.25-1.78.61.25,1.19,0,1.45-.62.63-1.44-3.11-8.33-4.7-8.7-.12-.03-.23-.05-.35-.09-.71-.25-1.5,1.17-2.13-.08-.11-.22,0-.76.2-.88.91-.55,1.87-.27,2.75.09,1.45.61,2.83,1.56,3.46,2.9,1.59,3.44,4.28,3.01,7.22,2.29,9.55-2.31,18.68-5.57,27.39-10.05,6.21-3.2,12.63-6.12,19.39-8.09,5.81-1.69,9.63-5.05,11.77-10.43-.25,3.74.02,7.65-4.36,9.67-.98.45-1.39,1.25-1.17,2.28.55,2.54,2.29,4.01,4.8,4.56,2.4.53,4.99,2.12,6.79-1.3,1.34-2.55,3.07-4.88,3.92-7.71.83-2.78,3.3-3.38,5.04-1.08,4.22,5.57,10.73,5.98,16.8,7.32,1.81.4,2.76.76,2.9,2.64.89,12.51,1.82,25.01,2.79,37.52.16,2.1-.25,2.86-2.84,2.69-5.24-.34-9.92,2.15-14.81,3.6-3.65,1.08-7.29,2.17-10.95,3.19-1.32.37-2.67.34-3.57-.89-1.15-1.58-2.91-2.04-4.65-2.31-9.48-1.47-18.2-5.79-27.72-6.91-4.76-.56-9.05-2.35-13.15-4.23-2.55-1.17-4.68-.9-7.12-1.05-2.63-.16-3.15,1.21-3.63,3.02-1.16.11-.89-.7-1.06-1.36-.33-1.26-1.46-1.61-1.69-.25-.46,2.69-2.06,1.61-3.43,1.3-5.82-1.33-11.62-2.83-17.67-1.38-1.63.39-3.38.68-4.47,2.01-3.99,4.89-9.89,6.71-15.51,8.87-1.94.75-3.42,2.72-5.95,2.25-.65-.12-.76,1.08-.85,1.73-.83,5.6-3.99,9.01-9.34,11.63-4.64,2.28-9.08,5.14-13.95,6.96-3.85,1.44-7.56,2.71-10.84,5.32-1.52,1.21-4.21.64-6.32.35-5.12-.7-10.32.04-15.39-.65-9.41-1.28-18.9-1.71-28.32-2.94-9.7-1.28-19.51-1.67-29.27-2.53-4.08-.36-5.15,3.17-7.77,5.34-.27-2.42-.25-4.33,1.06-6.37,1.68-2.62.94-5.84,1.47-8.77.67-3.56-2.09-5.05-4.32-6.93-2.89-2.43-5.2-5.38-7.49-8.33-.97-1.25-2-2.3-3.87-1.87-14.62,3.42-29.33,6.56-43.82,10.37-5.52,1.46-10.7,2.92-16.29.92-.65-.23-1.46-.32-2.12-.17-3.53.83-5.44-.05-5.18-3.93.08-1.16-1.15-1.95-1.91-2.83-2.3-2.64-4.93-5.1-6.8-8.01-1.79-2.8-3.97-3.35-7.12-3.24-27.85,1.02-55.7,1.89-83.55,2.82-2.99.1-6.27-.38-8.88.67-3.05,1.23-1.87,5.07-2.89,7.66-1.88,4.81-4.1,9.33-7.92,12.97-1.56,1.49-2.08,3.23-2.23,5.27-.55,7.23.41,14.5-.6,21.71-.26,1.9.64,2.71,2.62,2.78,6.51.22,12.72,1.98,19.02,3.34,2.73.59,4.64,2.03,6.33,4.16,13.81,17.46,20.8,37.64,25.18,58.8,1.19,5.71,3.38,11.03,5.69,16.31,1.44,3.28,3.08,6.46,4.01,9.93.66,2.45,2.11,3,4.57,1.94,5.38-2.29,10.09-5.71,15.34-8.23.96-.46,2.17-1.92,3.1-.6,1.06,1.53-.78,2.16-1.82,2.74-1.54.86-3.35,1.32-4.8,2.27-3.99,2.62-8.78,3.55-12.87,5.92-1.55.9-1.33,2.2-1.25,3.63.66,11.48,1.28,22.97,1.86,34.45.06,1.13-.19,2.27-.3,3.41-29.32,0-58.62-.03-87.94.06-2.14,0-2.57-.42-2.57-2.47.08-48.91.06-97.82.06-146.73,2.52,3.49,4.93,7.05,10.04,7.36.75.04,1.44,1.11,2.12,1.74,1.55,1.43,3.12,2.84,4.6,4.33,1.25,1.25,1.76.89,2.53-.54,1.18-2.18.02-4.3.21-6.42.5-5.55-1.33-10.82-2.09-16.22-.23-1.62-.85-3.47-2.54-4.4-2.4-1.31-3.16-3.18-2.96-5.74.11-1.34,0-2.87-.59-4.05-2.73-5.49,1.64-10.36.97-15.67-3.94.75-8.12,1.55-12.32,2.34v-144.31c4.08.88,8.27-.02,12.4.95,2.86.68,8.38-3.5,9.09-6.3.67-2.63,4.92-7.27,6.88-7.31,4.37-.09,2.29-3.63,2.87-5.46.67-2.09-1.8-1.9-3.25-1.88-1.73.03-3.55.56-4.54-1.59,2.23-1.29,5.49-.75,6.48-3.8.22-.67.35-1.91,1.53-1.42.94.4,1.86,1.15,2.4,1.98.65.99-.51,1.3-1.2,1.69-.62.35-1.42.66-.98,1.54.4.77,1.16.68,1.84.31.99-.53,1.97-.74,3.08-.32,4.17,1.6,5.38-1.41,7.08-4.02,1.72-2.65-1.43-2.82-2.2-4.47,1.43-.5,2.76-1.37,4.08-1.35,3.99.05,5.77-1.77,7.03-5.33,1.09-3.05-.44-4.15-2.59-4.38-3.11-.32-6.7.06-9.11,1.76-5.65,3.97-11.3,8.16-15.98,13.12-7.85,8.31-16.91,15.37-24.9,23.52v-37.98c3.24-.12,5.59-1.54,7.26-4.25.8-1.29,1.69-2.76,3.98-1.44,1.13.65,2.62-.63,3.06-1.77.58-1.53-.76-1.22-1.71-1.12-.49.05-.55-.3-.52-.67.05-.49.21-1,.82-.88,2.46.49,4.02-.59,5.25-2.52.55-.85,1.48-.37,2.3-.18,1.16.26,1.92-.38,2.18-1.32.32-1.14-.9-.67-1.39-.99-1.95-1.3-1.58-3.27-1.1-4.97.45-1.56.5-2.67-.49-4.14-1.36-2.01,1.59-7.97,4.38-8.85,2.52-.8,4.78-1.96,7.1-3.12.91-.45,2.01-2.36,3.24.2.45.94,2.6-.31,3.35-1.12,1.37-1.47,2.76-3.11,2.94-5.46-1.83,1.18-3.48,2.22-5.13,3.28,1.64-4.51,3.96-8.05,9.52-6.94-1.03,1.55-1.3,3.08,2.31,2.82-4.28,1.81-5.48,5.69-7.98,8.52-.99,1.12-2.9.62-4.36,1.26-5.25,2.28-8.09,7-12.05,10.58-1.09.99-1.65,2.64-.87,4.17,1.01,1.97,2.21.17,3.32.02,1.14-.16,1.74.5,2.43,1.17.6.58.58,2.1,1.9,1.56.99-.41.71-1.6.84-2.49.13-.87-.26-1.86.88-2.77,1.09,2.85-.21,5.46-.33,8.07,0,.18-.24.4-.43.53-3.67,2.44-4.18,7.02-.89,9.95.85.76.78,1.23.48,2-.33.87-.72,1.73-.43,2.67.06.19.28.33.53.6,3.38-3.18,3.45-7.41,2.92-11.2-.78-5.53,2.28-9.41,4.31-13.96,1.82-4.09,4.52-6.56,8.41-8.32.79-.36,1.7-.69,1.15-1.73-.88-1.62.68-1.75,1.35-2.58,1.52-1.89,3.17-3.1,5.56-4.11,2.96-1.25,5.28-3.87,7.88-5.89.28-.21.66-.59.88-.53,6.42,1.75.95-2.41,1.94-3.6,2.01.94,2.77,2.62,3.22,4.56.34,1.46.58,2.96,1.18,4.32.93,2.08,1.15,5.57,5.14,2.51.97-.74,3.46-1.02,4.45.81.99,1.82.1,3.36-1.66,4.36-4.81,2.73-6.61,8.11-10.85,11.38-1.36,1.05-.17,1.95,1.12,1.81,2.55-.28,4.99-.17,7.39.77.65.25,1.51.26,1.84-.57.35-.87-.43-1.22-1.06-1.53-.96-.47-1.55-1.1-1.19-2.19.22-.68.55-1.35,1.34-1.5,1.4-.26,1.4.94,1.79,1.72.53,1.05,1.45,1.81,2.57,1.27,1.52-.72.06-1.47-.28-2.17-.32-.68-.48-1.42.14-1.91,1-.82,1.44.14,1.96.74,1.17,1.35,1.98.99,3.15-.21,1.7-1.77,1.83-4.44,4.48-5.83,1.49-.79-1.52-.94-1.71-2.28,6.05,1.16,10.51-2.4,15.44-4.54,1.38-.6,1.75-.2,1.94.93.44,2.62-.65,5.53,1.8,7.79.54.5-.32,1.2-.75,1.75-2.63,3.43-3.36,7.01-2.15,11.31.74,2.65-.04,5.68.06,8.52.02.72-.91,2.38,1.24,2.12,1.26-.16,1.9.44,1.68,1.58-.3,1.52-1.85,1.21-2.91,1.56-1.29.42-1.77-.38-1.88-1.43-.32-2.96-.55-5.94-.91-8.91-.12-.96,0-2.26-1.47-2.42-1.2-.13-1.92.64-2.55,1.58-3.21,4.78-2.63,12.61,1.32,16.75.65.68,1.76,1.41,1.33,2.26-.86,1.69-2.12,3.1-1.11,5.25.12.26-.57,1.47.33,2.13,1.07.79,1.96.4,2.88-.34.95-.77,1.69-2.4,3.2-1.66,1.43.71,1.31,2.41,1.19,3.74-.19,2.21.56,3.65,2.94,3.89,2.86.29,2.18,2.1,1.49,3.5-.82,1.64-2.05,3.1-3.25,4.53-1.22,1.44-2.28,3.38-1.13,4.63.86.92,3.24,1.07,4.94.37,4.13-1.68,6.08-5.28,8.1-8.77.39-.67.19-1.86,1.15-1.96,1.31-.15,1.12,1.24,1.59,1.94,1.73,2.54.37,5.08-1.14,6.68-3,3.21-2.37,6.98-2.92,10.6-.08.56.07,1.41-.25,1.63-5.47,3.71-.13,8.84-1.9,13.01,6.22,5.98-2.29,9.48-2.72,14.37-.07.75-.95,1.59-.4,2.47,1.67,2.71.77,5.87,1.72,8.71.45,1.34-.12,2.22-1.41,2.75-.22.09-.42.25-.64.31-10.64,2.83-15.66,10.81-20.16,19.63-5.11,10.01-10.89,19.7-16.32,29.55-1.01,1.83-1.93,3.71-2.62,5.67-1.37,3.88-.11,6.99,3.43,9.29,3.35,2.17,6.97,3.92,10.26,6.24,1.79,1.27,4.98,2.3,7.77.91,1.04-.52,2.04-.49,3.12-.13,3.99,1.35,8.33,1.04,11.95-.09,2.7-.84,4.83-2.29,8.08-1.94,2.65.29,2.79-2.34,2.12-4.4-1.54-4.74-2.75-9.53-3.17-14.49-.89-10.54,3.03-19.68,9.28-27.99,2.73-3.62,4.57-7.35,5.35-11.82,1.85-10.64,4.81-21.07,4.13-32.09-.29-4.71,2.68-9,4.57-13.32,4.06-9.25,6.81-18.82,9.26-28.57,2.75-10.92,7-21.49,10-32.38,1.14-4.11,1.18-4.15-3.08-4-2.31.08-4.53-.29-6.71-.95-2.79-.85-4.34-2.77-4.77-5.51-.6-3.78.63-4.82,4.37-3.72,4.32,1.27,8.76,1.04,13.18.91,1.87-.05,2.99-.99,3.81-2.63,2.03-4.11,3.44-8.35,3.57-12.92.11-4.12,1.56-7.76,5.69-9.2,4.43-1.54,5.71-4.77,6.67-8.52.89-3.45,1.8-6.9,2.69-10.35.38-1.47.23-2.26-1.79-2.4-16.26-1.11-32.4,1.23-48.63,1.43-4.03,2.86-8.3-.13-12.49.48-4.34.63-8.83.42-13.25.5-4.52.08-9.06.45-13.58-.06-1.14-.13-2.36,0-3.9-1.26,3.22.16,5.8.44,8.36.4,25.23-.4,50.43-1.68,75.64-2.67,1.43-.06,2.87-.11,4.3-.1,6.46.04,6.93-.12,9.18-5.94,1.21-3.12,2.39-6.24,3.77-9.31.99-2.21,1.11-3.91-2.37-3.27-1.16.21-2.39.07-3.58.02-.96-.04-2.09-.09-2.05-1.38.04-1.31,1.07-1.74,2.26-1.65,1.07.07,2.16.18,3.18.46,2.94.82,4.49-.15,5.82-2.89,4.42-9.13,3.9-18.46,1.59-27.83-2.6-10.55-4.99-21.18-8.76-31.44-.93-2.53.55-5.5-2.3-8,3.71.17,4.46,3.68,7.62,4.3-.76-2.79-3.35-3.74-4.59-5.65-.43-.65-1.29-1.03-1.84-1.63-.65-.69-2.25-1.37-1.15-2.37.99-.9,1.83.55,2.6,1.16,1.41,1.13,2.19,3.06,4.71,3.28-.74-3.66-4.52-4.65-6.22-7.24-.67-1.03-3.22-1.62-1.77-3.02,1.04-1.01,1.96,1.12,2.92,1.86,3.07,2.4,5.71,5.21,8.17,8.18.64.78,1.36,1.55,3.37,1.93-4.2-5.69-8.12-10.53-13.28-14.42-1.31-.99-4.56-1.73-2.92-3.72,1.24-1.51,2.94,1.12,4.05,2.2,3.76,3.69,7.3,7.58,10.9,11.42,1.02,1.09,1.92,2.25,4.63,2.86-2.73-3.26-4.77-5.83-6.97-8.28-3.5-3.9-6.82-7.93-11.63-10.57-3.26-1.79-3.08-4.63-2.19-9.54,2.88-15.93,15.18-23.38,28.35-30.18,3.54-1.83,7.24-3.31,11.32-4.31.57.62-.59,2.14.6,2.53,3.24,1.07.9,3.94,2.12,5.75.68,1.01-.75.98-1.55.6-1.32-.61-2.35-1.89-4.42-1.7,1.24,2.71,3.64,4.15,5.25,6.15-1.23,1.6-3.02-1.42-4.04.66-.81,1.64,1.36,1.89,1.62,3.18-2.04,1.16-3.58.39-5.43-1.73.35,2.18.23,3.61-.99,4.79-.72.69-.96,2.05-2.38.87-.39-.33-1.18-.38-1.22.09-.33,3.86-2.57,2.47-4.9,1.15.63,2.33,2.26,3.19,3.49,4.36.7.66,1.56,1.42.79,2.34-1,1.18-2.09.24-2.73-.46-1.51-1.64-2.98-3.27-6.16-4.31,4.23,5.57,9.44,9.22,13.41,13.96-6.71-2.67-10.95-8.5-16.7-12.34-.27.29-.55.57-.82.86,3.73,3.56,7.41,7.17,11.2,10.68,1.96,1.83,4.12,3.47,6.14,5.23.54.47,1.02,1.19.45,1.81-.76.82-1.16-.12-1.67-.52-5.64-4.38-11.18-8.85-15.97-14.11-.72-.79-1.5-1.44-2.95-1.59,1,3.29,3.7,5.17,5.81,7.33,4.47,4.59,9.57,8.56,14.64,12.53,1.06.83,1.94,1.7,1.34,3.41-9.24-6.1-16.56-14.1-24.76-21.19.65,3.55,3.64,5.45,5.77,7.84,5.12,5.76,11.6,10.17,17.33,15.35,1.18,1.06,2.81,1.7,4.33,2.32,2.01.84,2.93-.49,3.33-2.05,1.71-6.61,5.34-12.26,9.49-17.64.57-.74,1.15-1.47,1.78-2.15,1.88-2.03,3.84-3.15,6.15-.44.4.47.96,1.05,1.99.81-.69-1.2-2.7-2.43-1.07-3.7,1.93-1.51,4.54-2.22,7.02-1.89,1.51.2.63,1.64.29,2.57-.81,2.22-.09,2.87,2.19,1.99.78-.3,1.59-.54,2.41-.65,2.48-.34,3.48.99,2.63,3.24-.88,2.34-1.89,4.61-3.7,7.33,2.42-1.2,2.86-4.46,4.64-3.63,1.9.89-.21,3.06-.56,4.58-2.79,12.11-3.23,24.35-2.69,36.66.14,3.27,1.78,6.16,2.63,9.25.68,2.47.83,5.02,1.59,7.47.66,2.07-1,3.2-3.61,2.37-3.65-1.17-7.52-1.27-11.22-1.69-2.08-.23-4.84.1-7.14.58-7.08,1.47-13.44,4.76-19.68,8.21,4.02-1.35,7.9-2.99,11.81-4.56,7.73-3.11,15.54-3.26,23.57-1.81,1.05.19,2.12.32,3.19.39,2.43.17,4.44-.87,3.87,3.78-.74,5.96-3.21,11.38-4.06,17.21-.33,2.26-1.18,4.6-.95,6.79.42,3.95-1.58,6.73-3.66,9.69-1.12,1.6-1.74,3.5-2.67,5.24-6.39,11.97-14.22,22.96-23.88,32.73-1.61,1.64-2.96,3.51-4.2,5.48,2.17-.46,2.68-2.64,4.26-3.68.59-.39,1.16-1.77,1.4.41.12,1.08,1.35-.37,1.43-.77,1.31-5.69,7.16-8.13,9.78-12.89-.56,3.98-3.42,6.78-5.23,10.16,2.14-1.5,4.04-3.31,5.2-5.53.98-1.85,2.4-3.13,3.91-4.44,1.85-1.61.73-4.23,2.05-6.04,1.1.46-.23,1.34.79,1.89,1.99-1.72,1.47-5.03,4.03-6.54.95,1.51-.73,2.89-.07,4.32.17-.11.46-.2.48-.33,2.51-12.76,11.45-21.52,20.33-30.31,3.19-3.15,5.83-7.13,11.17-7.3,1.15-.04,1.4-1.11,1.89-1.89.91-1.44,1.69-2.97,3.62-4.51-1.79,9.29-2.47,18.08-4.41,26.71-.91,4.02-1.82,8.09-2.48,12.11-.7,4.28-1.47,8.61-1.73,12.98-.11,1.95.91,3.49,1.32,5.68,2.35-2.39,3.25-5.13,4.61-7.65,1.23.49.97,1.49.85,2.09-.44,2.26.22,3.18,2.71,2.6,1.64-.39,2.16.69,2.16,1.98.02,3.82,1.61,7.75-1.11,11.38-.6.81-.49,2.1-.78,3.51,4.03-2.19,2.78-6.6,5.46-9.19.47,3.2.43,6.18-.68,9.26-1.4,3.9-2.49,7.92-3.53,11.93-.56,2.16-1.14,4.22-2.99,5.7-.51.41-.85.93-.32,1.46,2.23,2.25,2.25,2.24,1.68,4.99-.09.42-.22.83-.44,1.68,4.47-4.87,2.31-11.37,5.99-16.56.13,5.68.35,10.86-3.3,15.33,1.92.71,1.14-1.28,2.46-1.22.63,3-1.34,6.08.38,9.17,2.41-9.23,1.5-18.86,3.31-28.21,2.37,4.73.79,9.71,1.16,15.35,1.18-2.32,1.6-4.28,3.6-6.48-1.43,12.19-7.04,22.94-5.41,34.71.28-4.49,1.52-8.75,2.91-13.06.99,3.61-6.67,37.74-12.37,43.82,1.61.27,2.01-1.48,3.15-1.73-1.19,11.7-8.34,19.95-17.47,27.09,4.1-1.9,6.62-5.91,10.83-7.22,3.52-1.09,5.09-4.09,7.84-5.82.79-.5,1.88-1.54,2.86-.72.85.71.51,2.02.16,2.95-1.69,4.53-1.17,9.64-3.66,14.12,1.31-1.49,2.6-2.97,3.91-4.46,1.24-1.41,1.68-3.95,4.79-2.45.89.43,1.43-1.24,1.66-2.25.32-1.44-.19-3.02.83-4.34,2.37,1.83,1.63,3.6.27,5.74-1.63,2.57-3.64,5.03-4.53,8.28,5.46-2.9,6.78-2.76,8.2.77,1.51-.33.42-2.18,1.67-2.65,1.17.5.35,1.67,1.07,2.75.33-2.74.62-4.96,4.13-5.47,4.33-.63,3.23,3.27,5.01,4.68,3.65,2.86-1.83,4.18-1.41,6.94,2.74-1.51,4.76-3.32,6.46-5.52,1.29-1.66,2.61-3.29,3.85-4.98.63-.86,1.16-1.96,2.41-1.76,1.7.3.96,1.85,1.26,2.85.13.42.12.88.57,1.43.51-3.93,2.76-7.26,3.99-11.17,2.05,4.13,2.06,8.93,4.61,13.06-1.79-5.08.11-9.33,3-13.43-1.07,3.71-.49,7.39-.02,11.18,1.56-.35.85-2.03,2.05-2.79,1.12,1.62,3.22,2.56,3.83,5.69.99-2.6-.58-4.09-.19-5.69,3,1.1,4.52,4.63,4.31,10.11h.93c3.03.05-2.02-4.29,2.52-4.01,3.26.2.54-3.25,1.85-4.65,1.51,2.55,5.01,3.28,6.1,6.26,2.55-3.54,5.08-3.07,7.67.42,2.55,3.44,5.96,6.29,9.31,9.18.36-3.17-1.71-5.42-3.07-9.06,3,2.43,5.28,4.18,7.42,6.06,2.79,2.44,4.95,2.07,6.32-1.22.64-1.54,1.97-2.61,3.45-2.69,2.84-.15,4.13-1.87,5.54-3.79,2.69-3.66,3.43-3.68,7.1-.67.82.67,1.65,1.32,2.36,2.08.7.76,1.13,2.11,2.38,1.73,1.5-.47.16-1.53.12-2.31-.07-1.44.72-1.5,1.83-1.22,1.73.43,3.57.63,5.18,1.31,2.35.98,4.43,1.41,6.73-.2,1-.7,2.59-1.1,3.62.09,2.28,2.64,3.31.5,4.12-1.06,1.49-2.87,2.68-5.89,4.15-9.18.54,1.7-.58,2.78-.68,4-.1,1.26-2.08,2.55.25,3.83,2.2,1.2,4.21,1.7,6.15-.23,1.86-1.86,2.54-4.11,2.11-6.67-.19-1.11-.6-2.21,0-3.8,1.47,2.37-.1,5.34,2.71,7.56.11-2.12.26-3.67.25-5.22-.16-18.68,2.31-37.1,4.84-55.6,2.74-20.06,6.24-40.02,8.29-60.17.83-8.12,2.57-16.16,3.36-24.28,1.49-15.5,4.41-30.73,8.25-45.82.28-1.12.66-2.21.94-3.33.5-1.97,1.66-2.27,3.47-1.47,5.25,2.34,10.91,3.38,16.48,4.68,7.96,1.87,15.45-.12,22.69-3.05,1.87-.76,2.74-.47,3.58.91,1.42-.51.67-1.71,1.2-2.45,1.16-1.67,2.55-3.62,4.4-3.82,1.96-.22,2.09,2.37,2.93,3.8.29.5.48,1.05.78,1.54.42.7.32.63-.27,1.99-.38.88.27,1.79.76,2.55,2.83,4.41,4.49,8.93,1.4,13.85-1.06,1.69,2.2,1.91.99,3.59,1.36-1.43.78-3.04.9-4.55.05-.58.1-1.22.84-1.36.75-.14.96.48,1.29.96,1.69,2.46,1.11,5.03.44,7.63-.79,3.06-2.33,5.95-2.12,9.29,2.06-2.56,1.77-6.13,4.1-9.01,3.33,7.63,5.74,15.31,10.05,22.21-1.49-3.71-.73-7.53-1.08-11.34.45,4.72,5.03,6.5,7.39,9.82,5.75,8.12,9.96,17.01,15.07,25.43,2.18,3.61,4.55,7.13,7.35,11.49-.48-5.97-3.17-9.84-6.14-13.51-3.94-4.87-6.43-10.47-9.29-15.91-1.41-2.7-.39-6.28-3.34-8.4,1.98-2.76-1.27-3.27-2.24-4.73-2.89-4.29-3.89-9.26-5.63-13.97,2.16,1.33,2.44,3.72,3.94,6.11.53-5.1-3.65-8.36-3.62-13.51,2.4,2.88,4.64,5.01,5.52,8.05.75,2.58,1.63,4.85,4.95,5.4,1.17.19,2.39,1.19,3.18,2.13,4.28,5.18,9.26,9.83,11.28,16.55,1.92,6.38,4.2,12.72,7.01,18.78,1.89,4.07,4.97,7.63,7.69,11.67.77-1.98-.52-3.1-1.3-4.26-3.11-4.66-5.64-9.59-7.55-14.81-.44-1.2-1.61-3.06.12-3.63,1.84-.6,2.5,1.45,3.35,2.84,3.61,5.94,7.34,11.81,11.59,17.41-.45-3.82-2.7-6.88-4.42-10.08-1.56-2.89-2.69-6.11-5.44-8.41-.77-.64-2.13-1.78-.57-3.48.51-.55-1.18-2.36-2.46-3.34-3.35-2.52-6.97-4.95-7.5-9.55,2.11.52,4.18,1.04,6.23,1.55h0ZM51.6,477.06c2.25.24,3.68-.85,4.94-2.06,3.74-3.61,6.19-8.71,12.54-9.26,1.4-.12,2.88-2.12.73-3.26-2.14-1.14-4.83-1.71-7,.35-4.08,3.85-8.08,7.77-12.1,11.68-.58.56-1.31,1.19-.83,2.07.4.73,1.29.41,1.71.48h0ZM191.42,284.34c3.81,5.24,7.84,10.22,12.86,14.37,4.22,3.49,9.04,6.49,12.54,10.55,2.51,2.91,3.59,1.93,5.43.89-12.21-6.88-20.59-17.39-30.83-25.81ZM208.7,312.22c-7.5-7.32-12.76-16.84-22.87-21.61,8.19,6.65,13.74,15.89,22.87,21.61ZM207.72,306.14c-2.17-4.51-14.9-16.81-18.17-17.74,5.48,6.47,11.03,12.88,18.17,17.74Z"/><path class="cls-1" d="M841.47,635.61c-8.48-.69-17.28-1.28-25.36.49-13.59,2.97-27.21,2-40.79,2.64-27.34,1.29-54.73,2.02-82.1,2.64-18.29.41-36.57.96-54.85,1.68-2.61.1-3.02-1.01-2.82-3.07.62-6.29,1.05-12.62,1.79-18.9.83-6.97,2.1-13.93-2.92-21.11,4.58,1.1,7.95,2.96,11.73,2.18,4.29,4.27,10.32,5.87,15.25,9.2,1.22.82,1.54,1.93,1.85,3.19.63,2.57,1.33,5.06,3.26,7.17,2.31,2.52-.26,3.8-2.47,5.28,3.73,1.5,6.49.43,8.99-1.37,1.89-1.36,3.7-2.25,5.81-.66,2.41,1.83,4.2,4.18,4.51,7.14.17,1.54-1.53,1.9-2.84,2.09-3.74.58-6.84,2.7-10.31,3.9-.77.26-1.64.72-1.45,1.72.2,1.02,1.21,1.07,2.01,1.03,6.07-.31,12.14-.63,18.21-1.03,1.66-.11,2.78-1.28,3.78-2.44,2.74-3.18,5.16-6.68,8.23-9.54,10.29-9.6,16.8-22.12,26.81-31.94,1.54-1.52,3.09-2.42,5.27-2.41,2.75,0,5.5.03,8.25-.12,1.16-.06,3.09.36,2.92-1.57-.14-1.47-1.77-1.21-2.95-1.19-2.39.04-4.78.13-7.17.14-2.73.02-3.89-1.3-3.63-3.93.24-2.37.56-4.79-.66-7.1-6.25,7.33-15.61,6.21-23.6,8.75,1-1.71,2.79-1.82,4.32-2.31,2.67-.86,4.96-2.25,7.04-4.02.44-.37,1.02-.82.77-1.43-.34-.84-1.17-.57-1.86-.49-.24.03-.5.05-.7.17-5.28,3.15-11.65,3.34-17.19,5.82-1.81.81-3.25,1.9-4.37,3.43-.68.92-1.77,1.83-.93,3.05.78,1.13,2.11.87,3.3.73,6.78-.8,13.43-2.19,20.1-3.58,1.38-.29,2.75-.87,4.15-.05.11,1.12-.86,1.04-1.45,1.17-3.53.79-6.47,2.07-9.07,4.9-3.67,3.99-9.44,4.04-14.4,4.22-12.04.44-24.1.07-36.12-1.27-3.65-.41-7.63-1.79-10.68,1.7.11-7.9,4.93-14.17,7.02-21.29.48-1.65,1.6-2.06,3.25-2.01,8.34.24,15.95-2.04,23.17-5.99,4.7-2.57,9.86-3.96,15.32-4.15,1.49-.05,2.8-.53,4.03-1.29,1.27-.77,2.59-1.22,4.08-.69.9.31,1.95.57,2.2,1.57.29,1.18-.9,1.47-1.64,1.97-.49.33-1.28.5-1.47.94-3.81,8.08-12.69,6.06-19.17,8.67-3.5,1.41-6.94,2.95-10.37,4.47-2.07.92-1.66,2.19.04,3.34,3.21,2.17,7.13,1.76,10.6,2.84,4.1,1.29,6.7-.78,9.76-2.72,5.5-3.51,10.43-7.67,15.52-11.66,1.16-.91,1.82-2.1,2.63-3.24,1.37-1.92,2.9-3.36,5.6-3.83,4.63-.8,10.26-8.62,10.11-13.45-.04-1.27-.44-2.69.41-3.7,3.08-3.61,3.69-7.84,3.87-12.29.07-1.65.88-3.4,3.09-2.97,2.35.46,2.19-.97,2.46-2.33,1.13-5.6.31-11.25.59-16.88.05-1.03-.15-2.29.39-3.03,1.03-1.43.88.45,1.54.76,1.39-6.36-.7-12.27-2.39-18.16-.79-2.73.13-4.95,1.1-7.3.47-1.14,1.37-1.12,2.36-.96-.55.79-.51,1.51.3,2.11,2.26,1.7,3.39,4.28,5.06,6.39,6.1,7.69,11.94,15.54,19.33,22.18,3.95,3.54,3.91,4.25,1,8.82-1.19,1.87-2.37,3.72-3.66,5.52-.78,1.09-.66,1.9.46,2.6,1.17.74,2.04.34,2.65-.74.46-.81.85-1.65,1.26-2.47,1.77-3.59,2.47-8.23,8.33-7.86-.35-1.52-2.28-1.09-3.04-2.36,2.56-.44,5.3.54,7.46-.97-.33-3.18-4.06-3.36-5.06-5.5-2.77-5.9-8.25-9.08-13.06-12.96-2.14-1.73-4.36-3.23-7.36-2.99-1.59.12-2.53-.55-1.42-1.95,1.15-1.44,1.01-1.98-.82-2.12-.98-.08-1.83-.63-1.68-1.44.62-3.28-1.57-2.5-3.39-2.29-.67.08-1.42,1.35-1.97-.06-.31-.78.2-1.27.92-1.63,2.53-1.3,1.76-1.63-.44-2.52-1.93-.78-3.25,1.54-4.92.31.53-.47,1.04-.95,1.58-1.39.77-.63,2.5-.52,2.27-1.83-.3-1.69-1.71-.46-2.64-.53-.7-.05-1.11-.46-1.18-1.1-.17-1.7,1.43-1.09,2.43-1.5-1.7-2.69-4.09-.95-6.18-.93,0-1.39.22-2.95,1.35-3.06,3.98-.4,3.77-3.55,3.41-5.6-.61-3.51,1.61-4.59,3.87-5.99.62-.39,2.03-.38,1.36-1.49-.57-.94-1.5-.17-2.14.31-1.66,1.26-2.76.7-3.07-1.08-1.04-5.81-3.6-11.18-5.17-16.82-1.28-4.58-3.9-8.81-2.44-14.16.8-2.92-1.45-6.38-2.92-9.41-4.75-9.77-9-19.81-15.44-28.76-2.1-2.92-1.02-4.54,2.79-4.83,3.34-.25,6.69-.42,10-.83,3.17-.39,5.12-2.07,4.6-5.37-.31-1.99.42-2.76,2.38-2.87,2.98-.17,5.97-.38,8.94-.65,2.56-.23,3.78.98,4.05,3.3.22,1.93.42,3.88.62,5.81.08.77-.47,1.81.42,2.22,1.03.48,1.69-.54,2.43-1.07.55-.4,1.06-.85,1.4-1.12.29-1.81-4.7.72-1.92-2.69.91-1.12,2.76-1.34,3.27-2.98-4.23-.65-4.48-.93-2.36-2.47,1.01-.74,2.11-1.36,3.18-2.02-.9-1.53-3.52.2-3.48-1.75.03-1.63,2.26-1.79,3.48-2.65.54-.39,1.37-.4,1.91-.79.27-.18.35-.86.24-1.24-.15-.53-.71-.6-1.14-.27-1.16.88-2.39.51-3.7.5,2.34-5.78,1.48-7.56-3.52-7.31.5-2.23,2.75-2.36,4.18-3.35.66-.45,1.26-.87.83-1.62-.59-1.02-1.12-.1-1.69.17-1.37.64-2.8,1.1-4.77,1.16,2.37-3.31,5.75-4.5,8.93-5.86,1.36-.58,1.83.64,2,1.75.25,1.66.81,2.72,2.79,1.6.54-.31,1.28-.29,1.61.26.5.79-.2,1.2-.8,1.64-1.53,1.13-1.78,5.22-.41,6.26.69.52,1.33.26,1.99-.05.99-.46,2.07-.89,1.92-2.18-.33-2.71-.61-5.45-1.18-8.12-.27-1.27-1.36-1.56-2.42-.51-.84.82-1.73,1.08-2.29-.09-.57-1.21.46-1.61,1.47-1.78,2.23-.39,2.67-1.63,1.92-3.52-.3-.76-.57-1.84.49-2.04,1.37-.28,1.18.95,1.4,1.84,2.06,8.35,2.32,17.02,4.72,25.31.2.69.28,1.47-.45,1.87-.87.48-1.87.45-2.72-.07-.7-.42-.85-1.1-.35-1.79.49-.68,1.16-1.43-.05-1.92-.58-.24-1.5-.24-2.03.06-.84.47-.67,1.38-.3,2.16.42.91,1.42,2.2-.04,2.6-1.75.48-1.38-1.37-1.74-2.34-.29-.75-.68-1.46-.96-2.2-.51-1.36-.22-2.22,1.5-2.32.82-.05,1.62-.32,2.41-.55.72-.21,1.39-.6,1.15-1.45-.2-.7-.97-.45-1.49-.62-1.91-.65-3.02,1.02-4.54,1.46-2.92.84-.48,2.52-.26,3.83.17,1.01.44,2.01.8,2.98,1.54,4.16,2.4,4.5,6.9,2.74,1.12-.44,2.34-1.31,2.93.37.57,1.6-.86,1.95-2.07,2.09-1.49.17-3.5.32-2.15,2.21,1.02,1.44-1.65,6.04,3.53,4.22,1.66-.59,2.13.16,2.52,1.79.96,4.13.27,8.36,1.13,12.48.25,1.2-.48,2.17-1.74,2.13-4.32-.15-3.89,2.73-3.9,5.4,0,1.73,1.09,3.24.88,5.06-.14,1.23,1.02.94,1.84.75.89-.21,2.06-.03,2.18-1.32.06-.64-.35-1.23-1.08-1.01-.99.3-1.8.42-1.52-.88.28-1.26,1.65-1.21,2.64-1.4,1.06-.2,1.57.58,1.39,1.5-.54,2.7.14,6.15-4.5,6.32-1.09.04-2.54.44-3.75,1.8,2.28.25,4.22.26,6.1-.35,1.1-.36,1.64,0,1.82.94.16.81-.3,1.36-1.2,1.35-4.22-.06-7.88,2.13-11.95,2.8-2.12.35-4.12.23-6.81.61,2.4-2.94,5.4-2.97,8.05-3.38,2.15-.34,3.12-.84,2.35-3.01-.24-.67-.26-1.62.36-1.93,5.21-2.63.78-6.84,1.74-10.19.35-1.23-1.51-1.01-2.49-.57-2.75,1.25-5.75,1.51-8.66,2.1-2.22.46-4.94.08-4.74,3.71.54-2.54-1.3-5.8,3.13-6.21-.8-1.57-1.93-1.05-2.77-1.32-.97-.3-2.43.5-2.89-.73-.41-1.13.92-1.37,1.72-1.81.76-.41,1.05-1.32.38-1.69-3.62-2,.11-2.18.8-2.49,2.33-1.05,4.9-1.6,7.02-3.42-3.15,1.27-6.62.79-9.6,1.66-1.95.57-2.22,3.92-2.73,6.19-.11.5.39,1.28-.27,1.55-4.52,1.87-3.17,6.51-4.94,9.68-.72,1.29,1.11,2.04,2.07,2.83-1.33.66-3.01.52-4.5,1.88,3.33,1.28,3.16,2.02.06,3.21-2.08.8-2.35,3.43-2.25,5.4.06,1.33,2.04.49,3.09.93.52.22,1.38-.07,1.5-.64.84-3.62,3.84-6.87,2.05-10.94,1.41-.79,3.83-.94.94-3.3-1.66-1.37.24-3.81.45-5.77.06-.58,1.36-.28,1.2.28-.63,2.11-.08,3.48,2.11,4.24.13.04.19.71.06.98-1.58,3.15-.15,6.54-1.03,9.85-1.02,3.85-.89,7.99-1.33,11.99-.36,3.3.75,5.25,5.73,4.42-2.47,1.83-5.56,1.09-5.71,3.68-.08,1.51,1.85.37,2.67,1.15-4.25,3.08-3.71,7.89-5.68,12.13,2.37-.24,1.91-1.83,2.61-2.72.81.71.09,2.69,1.78,2.41,1.6-.27.69-1.64.67-2.57-.03-1.95.4-3.8,1.41-5.58.44,2.01-.42,4.14.6,6.06.38.72.75,1.7,1.76,1.28.9-.37.15-1.17.08-1.8-.2-1.96-.64-3.99.59-5.81,1.36.32.84,1.11.76,1.73-.1.82-.29,1.86.73,2.03,1.41.25,1.35-.96,1.4-1.87.04-.81-.08-1.85,1.09-1.78,1.36.08.86,1.14.65,1.87-.42,1.44-.11,2.86,1.42,2.98,2.06.16,1.42-1.6,1.41-2.77,0-.84,0-1.88,1.16-1.71,1.41.21,1.11,1.3.62,2.14-.58.99-.37,1.98-.36,3.02.06,4,2.31,5.94,6.37,5.44,1.54-.2,1.91-1.19,1.88-2.46-.03-1.94-.1-3.89-.12-5.83,0-.68,0-1.54.99-1.5.71.03.87.73.81,1.32-.74,6.81,1.22,13.46,1.36,20.22.04,1.73.46,2.95,2.72,2.56,1.74-.3,2.54.65,2.12,2.22-.62,2.28,1.06,4.14,1.02,6.35-.02,1.37,1.49,1.49,2.82,1.2,1.39-.3,2.62.21,2.51,1.62-.11,1.33-1.44,1.32-2.56.97-.74-.23-1.51-.49-1.68.49-.19,1.09.68,1.26,1.6,1.32,3.87.25,7.69,1.25,11.6.41,1.07-.23,2.04.1,2.07,1.28.03,1.16-.96,1.48-2.01,1.43-.34-.02-.67-.24-1.02-.32-1.02-.24-2.08-.29-2.06,1.06,0,1.2,1.1,1.34,2.11,1.35,3.01.03,6.02.03,9.03.09,4.96.1,9.86,1.34,14.89.76,1.24-.14,2.59.15,2.6-1.5.02-1.59-1.28-1.83-2.56-1.58-2.08.41-4.2-.86-6.33.34-.93.53-1.92-.2-1.89-1.35.03-1.01,1.01-1.53,1.79-1.08,2.1,1.19,4.22-.02,6.33.33,2.08.34,2.85-.74,2.29-2.69-.54-1.87-1.18-3.8,2.2-2.42,1.12.46,1.97-.03,2.03-1.18.06-1.21-.78-2.26-1.98-1.75-2.3,1-4.4-1.19-6.64-.1-.53.26-1.26-.04-1.4-.71-.16-.75.49-1.12,1.09-1.04,3.33.4,4.96-.44,3.45-3.96-.25-.59.28-1.12.95-1.2.88-.11,1.38.41,1.42,1.19.03.55-.25,1.11-.33,1.68-.18,1.24.38,2.1,1.68,2.13,1.24.02,1.49-.96,1.48-1.95,0-.34-.12-.68-.2-1.02-.18-.8-.47-1.85.72-1.9,1.07-.04.95,1.05,1.01,1.86.28,3.79.63,7.58.93,11.37.12,1.51,1.05,2.07,2.42,1.76,1.55-.36,1.24-1.37.68-2.41-1.02-1.92-.51-2.73,1.86-2.6,3.16.17,4.63-1.64,3.82-4.5-.2-.69-.52-1.33.19-1.86.25-.18.71-.29.99-.2.77.25.93.88,1,1.64.29,3.24.76,6.43,1.47,9.65.5,2.22-.37,4.39,3.14,4.2-.02,47.37-.02,94.78-.02,142.19h0ZM835.06,621.48c5.25-8.31,5.36-9.09,2.94-14.66-1.44-3.33-3.5-5.41-7.64-4.43-2.07.48-4.42-.27-6.32.85-2.37,1.4-.9,3.75-1.12,5.69-.12,1.02-1.66,2.35.19,2.83,2.12.55,3.88,3.16,6.46,1.42,1.07-.72,2.11-1.33,3.23-.53,1.1.78.12,1.66-.29,2.42-.43.82-.49,1.69.33,2.16,1.52.9,1.43,2.53,2.22,4.24h0ZM760.95,595.83c-1.12-.82-2.02-.25-2.93-.24-2.87.02-5.68,2.88-8.59.18-2.45,2.87-5.01.06-7.51.15-.47.02-.93.22-1.4.27-4.68.52-8.52,3.66-13.63,3.59,1.31,1.59,2.68,1.13,3.93,1.16,7.48.14,14.84-2.03,22.42-1,3.27.44,5.68-1.6,7.71-4.11h0ZM732,620.81c1.61.1,2.77.2,3.94.23.91.02,2.06.59,2.64-.42.62-1.06-.11-2.1-.87-2.78-4.61-4.15-9.92-7.29-16.24-8.04-3.87-.46.77,3.07-1.47,3.89-.4.15-.37,1.34.56,1.62.29.09.76-.02,1.01-.21,2.46-1.87,4.43-.81,6.33.9.63.57,1.46,1.25,2.07.22.94-1.59,1.95-1.41,3.19-.5,1.03.77,2.45,1.43,2.4,2.81-.08,1.83-2.29.75-3.55,2.28h0ZM774.28,598.12c2.93-.24,5.3-.45,7.68-.62,3.57-.25,7.13-.47,10.7-.73.71-.05,1.55-.23,1.42-1.16-.1-.67-.86-.72-1.44-.73-2.87-.06-5.78-1.81-8.6.38-.86.66-2.1.41-3.12,0-2.19-.87-4.38-1.09-6.62-.23-.93.36-2.8-.86-2.7,1.18.08,1.86,1.75,1.88,2.68,1.9h0ZM816.12,589.47c-.02-.47-.04-.94-.05-1.41-9.72-.04-19.32,1.23-28.9,2.95,9.65-.52,19.29-1.04,28.95-1.55h0Z"/><path class="cls-1" d="M841.47,318.68c-1.88-3.38-4.95-3.92-8.51-3.26-.82.15-1.65.53-2.25-.37-.1-.15-.08-.47,0-.64.53-.95,1.38-.73,2.19-.5,1.06.31,2.11.62,2.95-.39.54-.65.31-1.31-.17-1.89-.83-1.01-1.69-1.44-3.06-.6-1.1.67-2.07.1-1.59-1.16.83-2.14-1.45-3.26-1.52-5.07,0-.26-.47-.75-.68-.73-3.42.34-4.13-1.48-4.67-4.36-.7-3.67-5.3-2.77-7.59-4.82-.33-.29-1.34.07-1.05.86.93,2.49-.73,2.47-2.34,2.17-2.33-.43-4.38,1.16-6.71.68-.54-.11-1.29.11-1.31.86-.02.92.71,1.11,1.47,1.05.83-.07,1.65-.32,2.48-.32,3.57,0,2.25,2.96,2.57,4.53.41,1.96-1.54,1.4-2.75,1.2-.85-.14-1.66-.21-2.44.19-1.66.85-3,.83-3.6-1.22-.22-.74-.67-1.31-1.49-1.2-1.02.13-.87.91-.71,1.6.22.95-.13,1.6-1.12,1.84-.75.18-1.67.03-1.89-.62-1.37-4.05-4.77-1.78-7.27-2.21-1.74-.31-4.96,3.47-4.9-1.76,0-.49-1.06-.33-1.52.07-.92.79-1.15,1.72-.38,2.74,1.11,1.47,3.06,1.72,4.82,3.13-5.45.92-10.69,1.22-15.6,2.98-.99.36-1.79-.43-1.67-1.64.2-2-1.3-3.16-2.83-4.47.1,1.64.05,3.31.37,4.91.2.98.66,1.9-.63,2.23-1.35.35-1.51-.58-1.52-1.66-.02-3.17-4.98-7.54,3.4-8.72-3.4-.49-5.58.4-7.7,1.14-4.28,1.51-3.02-2.66-4.18-4.01-1.33-1.55.89-1.65,2.17-1.76.87-.08,1.82-1.28,1.25-1.33-3.18-.24-1.99-3.16-3.33-4.45-.54-.52-.5-1.71-1.65-1.49-1.06.2-1.01,1.12-1.07,1.92-.07,1.01.03,2.4-1.47,2.25-1.35-.13-.79-1.49-.79-2.3-.02-2.46-.34-5.05,1.82-6.95,1.54.4-.13,2.49,1.45,2.38,1.63-.11,1.22-1.74,1.4-2.78.79-4.76,1.51-9.52,5.12-13.27.16-.17.27-.51.43-.54,5.35-.73,5.23-6.06,7.96-9.01,2.87-3.09,4.5-7.25,6.66-10.96.15-.26.09-.64.12-.97-1.27-.54-1.72,1.34-3.17.67-.4-1.66.6-3.15,1.14-4.74.19-.55.42-1.23-.19-1.58-.86-.49-1.31.26-1.65.83-1.27,2.01-1.66,4.55-4.22,6.5-.26-3.37,1.29-5.61,2.7-7.88.37-.59.83-1.27.03-1.82-.57-.39-1.23-.13-1.61.32-3.32,3.79-7.26,6.82-11.79,9.21-.57.3-1.14.86-1.04,1.72,1.48.13,1.69-1.85,3.43-1.77-2,2.48-3.72,5.12-5.81,7.06-5.88,5.49-6.82,12.89-9.2,19.7-1.07,3.05-2.6,6.12-1.99,9.59.19,1.11-1.05,1.49-2,1.59-1.67.17-1.16-1.07-1.17-1.9-.04-3.93.4-7.55,2.79-11.12,1.98-2.97,1.5-7.01,2.43-10.54.56-2.11.88-4.16,2.23-6.09.88,1.61-.89,2.68-.56,4.45,1.9-1.24,2.9-3.04,3.31-4.75,1.29-5.26,5.35-8.34,9.26-11.44,3.93-3.12,7.24-6.65,9.89-10.79,1.42-2.21,3.18-3.95,6.99-4.94-3.6-.67-2.85-2.37-2.36-3.82,1.47-4.37,3.08-8.69,4.63-13.03.31-.87.61-1.75.88-2.62.2-.67.45-1.49-.24-1.91-1.09-.69-1.38.47-1.89,1-.48.48-.89,1.02-1.69,1.96-.39-2.72.55-4.52,1.84-6.13,1.39-1.73,1.96-3.64,2-5.75,0-.45-.28-1.16-.07-1.32,3.6-2.77,1.79-6.79,2.47-10.19,1.12-5.65,3.55-10.83,5.36-16.23,1.31-3.87,3.09-7.59,4.84-11.83.78,2.07,1.76,1.94,3.17.95,2.1-1.5,4.21-3.17,6.62-4.07,4.58-1.72,9.09-3.7,14.23-3.92,2.36-.1,4.63-1.69,6.99-2.47,1.15-.39,2.28-1.79,3.59-.61,1.37,1.24-.69,2.18-.61,3.63,2.59-.5,5.15-.7,7.4-2.08-.38-1.33-2.33,0-2.19-1.11.17-1.37,1.36-2.49,2.84-2.74,2.04-.34,3.9-1.06,5.73-1.91,0,56.89,0,113.74,0,170.59h0ZM776.9,269.1c-1.33-.96-1-2.16-.61-3.43.87-2.8,2.38-5.26,4.26-7.52,1.19-1.44,1.78-2.89.44-4.83-1.91,2.12-3.78,4.07-4.59,6.62-2.21,6.91-4.51,13.8-6.38,20.8-1.47,5.54-1.65,11.27-1.7,16.98,1.18-1.05,1.18-2.33,1.4-3.57.45-2.51,1.41-4.86,2.81-7.01.33-.51.71-1.55,1.4-.29,1.11,2.02,1.31.34,1.54-.37,2.91-8.83,7.57-16.53,15.25-22.37.98-.74,2.2-1.73,1.58-4.03-7.68,5.79-13.72,12.61-20.52,18.68,1.45-3.41,2.57-6.9,5.07-9.73,4.84-4.08,10.1-7.79,14.41-12.34,4.36-4.61,8.18-9.91,6.85-16.98-.31.13-.47.15-.5.22-.18.42-.38.84-.47,1.29-1.42,6.86-4.76,12.49-10.18,17.35-3.6,3.21-8.2,5.73-10.05,10.53h0ZM804.42,280.74c-1.31,1.67-2.22,3.28-2.65,5.09-.25,1.05-.84,2.56.73,2.93,1.33.32,2.23-.93,2.31-2.12.2-3.03,2.32-4.95,4.11-7.08,1.28-1.52,2.67-2.94,3.87-4.51.55-.72.98-1.74.28-2.57-.87-1.02-1.95-.55-2.91-.03-2.82,1.52-5.61,3.09-7.51,5.72-.46.64-1.23,1.27-.76,2.14.57,1.05,1.5-.28,2.54.43h0Z"/><path class="cls-1" d="M1.6,448.49c2.98.59,5.63.75,7.06-2.74.46-1.12,1.83-2.25,3.64-1.59,1.34.5,2.35-.85,3.87-.88-.57,3.59-2.03,6.48-4.23,9.11-.78.93-2.09,2.09-.73,3.25,1.04.88,2.21-.16,3.21-.75.4-.24.69-.63,1.07-.91.78-.57,1.86-2.13,2.48-.92.61,1.19,2.33,3,.47,4.47-3.55,2.79-5.39,7.03-9.68,9.4-1.96,1.08-2.82,4.53-4.07,6.93-.8,1.55-1.76,1.58-3.09,1.56v-26.93Z"/><path class="cls-1" d="M841.47,691.54c-5.39-3.73-9.08-9.06-13.64-13.55-4.16-4.1-7.98-8.51-11.94-12.81-.65-.71-1.98-1.54-.82-2.49.94-.78,1.63.49,2.24,1.12,7.07,7.3,14.12,14.63,21.19,21.93.87.9,1.48,2.13,2.95,2.35v3.45h0Z"/><path class="cls-1" d="M655.6,299.9c3.17.1,6.2,2.01,9.31-.18-1.15-1.03-2.49-.51-3.65-.55-4.56-.13-8.6-1.55-12.38-4.03-1.47-.97-1.72-2.45-1.77-3.59-.03-.72,1.84-1.65,3.23-1.66,1.31,0,2.64,0,3.92.26,3.14.63,6.06,1.97,9.18,2.76,2.85.72,5.7,3.97,5.38,6.18-.99,6.83,3.48,10.05,7.97,13.33,5.52,4.04,18.57,7.07,25.73,6.32-.73-2.03-2.56-2.6-4.25-3.37-9.62-4.34-16.2-10.85-16.93-21.67-.12-1.81-.88-3.57-1.35-5.35-.94-3.51-1.54-3.7-4.18-1.2-1.69,1.62-3.38,2.81-5.99,1.72-1.53-.64-3.3-.49-4.97-.29-5.99.73-11.68-.5-17.22-2.49-4.46-1.61-7.08-6.25-12.53-6.43,1.01-1.39,1.99-.1,2.74-1.07-3.67-1.67-7.46-3.05-10.78-5.47,1.07-.91,1.66-.23,2.41.07.83.34,1.13-.16,1.28-1.05.22-1.26-.48-1.04-1.19-.93-1.45.23-2.86.18-4.2-.47-.9-.43-2.38-.14-2.52-1.52-.15-1.45,1.25-1.41,2.2-1.79.5-.2.92-.59,1.59-1.03-2.16-.5-4.33,1.56-5.82-.99-1.85-3.17-3.94-6.28-3.38-10.11.26-1.8,2.04.56,2.76-.65-.45-.33-.9-.67-1.35-1.01,6.38,1.73,12.74,2.57,20.12.67-2.56-.92-4.18-.1-5.79-.2-1.65-.1-3.86,1.27-4.67-1.59-.21-.72-1.48-.4-2.32-.35-.96.06-1.91.02-2.87.02-3.88,0-6.11-1.88-6.69-5.63-.1-.65-.05-1.39-1.07-1.91,0,1.83,0,3.5-.02,5.18,0,.14-.32.28-.38.33-4.42-2.65-8.88-5.25-11.66-10.39,2.67.03,3.68,1.52,4.94,2.61.39.34.35,1.68,1.29.82.39-.36,1.98-.68.63-2.03-.78-.78-1.39-2.52,1.66-2.77-2.93-.96-4.51-2.02-1.59-4.14.64-.46.11-1.28-.15-1.91-1.46-3.58-3.35-6.95-6.68-9.19-2.58-1.74-4.01-3.81-3.97-7.08,1.63.03,3.3,1.93,4.98.27.02-.02.8.45.96.8,2.25,5.09,6.39,9.19,8.19,14.59.41,1.22-.32,1.97.09,3.11,1.15-.16,2.27-.31,3.93-.54-3.66-4.84-5.32-10.06-6.03-16,3.04,1.09,4.36,3.77,6.9,4.92-2.11-3.68-7.09-5.33-7.02-10.52,3.37-.37,7.3-.8,11.23-1.24-2.8-1.39-5.85-1.47-8.66-.9-3.98.8-5.8-.43-6.29-4.18-.19-1.45-.77-2.85-1.18-4.29,1.28-.46,1.53,1.1,2.59.94.23-.96-.47-1.67-.81-2.46-.71-1.67-2.11-2.7-3.56-3.75-1.83-1.33-3.29-2.57-4.09-5.14-.83-2.66-3.98-4.67-6.14-6.92-.71-.75-1.52-1.41-2.02-2.7,2.98.98,5.96,1.94,9.2,3-.35-1.68-1.46-1.9-2.28-1.92-3.51-.07-5.15-4.33-9.03-3.63-.41.07-1.13-1.07-1.58-1.72-6.92-9.8-14.23-19.31-22.81-27.86-1.83-1.83-3.47-3.81-4.58-6.14-.38-.79-1.13-1.72.08-2.41.93-.54,1.84-.28,2.58.48,1.27,1.3,2.53,2.6,4.43,4.56-.45-2.35-1.67-3.18-2.58-4.1-1.66-1.7-1.56-2.95.62-3.99,2.78-1.33,5.57-2.63,8.34-3.97,3.91-1.89,8.12-.91,11.88-.25,6.01,1.05,12.1.77,18.13,1.92,4.59.89,8.64,2.24,12.18,4.95,1.2-1.27-.97-1.92-.04-2.67.86-.7,1.84.04,2.67.4,5.13,2.23,8.34,6.57,11.38,10.73,2.41,3.31,5.24,6.38,7.07,10.17,1.08,2.22,1.13,4.6,2.33,6.79,4.46,8.11,8.79,16.31,11.9,25.01.6,1.67,1.84,3.36.17,5.15-.7.75-.08,1.36.56,1.65,5.42,2.45,5.52,7.45,6.34,12.12.19,1.07-.85,3.43,2.07,1.83.7-.39,1.14.63,1.4,1.25.38.9,0,1.52-.83,2.01-.73.45-2.02.28-2.01,2.02,6.44-2.27,7.9,2.73,10.05,6.48.87,1.52,2.25,2.64,3.17,4.49-2.94.22-3.14-3.14-5.61-3.18,1.96,1.84.86,6.21,5.88,5.6,2.25-.28,2.68.85,2.3,3.15-.21,1.23,1.02,1.74,1.92,2.24,5.4,2.97,9.15,7.69,13.42,11.83,1.19,1.15,1.92,1.34,3.33.74,6.81-2.89,15.24-1.18,19.61,4.45,2.16,2.77,2.5,6.45,2.12,9.87-.43,3.88-1.31,7.72-2.23,11.52-1.32,5.37-1.09,10.79-.51,16.15.88,8.19,6.09,13.84,13,18.08,2.68,1.64,5.21,3.48,8.1,4.92,3.29,1.63,4.01,5.79,5.17,9.08,1.27,3.56,1.98,7.34,2.57,11.08.51,3.24,3.22,5.32,4.14,8.35,1.53,5.08-.9,8.1-6.23,7.33-1.31-.19-2.67-.15-3.9-.54-4.62-1.48-6.21,1.06-6.74,4.05-1.2,6.69-2.81,13.71,3.55,19.23.74.64,1.33,1.41.36,2.34-1.09,1.05-2.43,1.98-3.76.83-2.23-1.95-5.34-3.21-5.96-6.58-.14-.75-.65-1.51-1.19-2.09-3.23-3.47-4.41-7.52-3.73-12.27-3.06,3.15-3.11,6.32.29,10.77,1.47,1.93,1,3.26-.23,4.75-.49.59-1.14,1.34-2.11.78-.69-.4-.78-1.07-.65-1.82.13-.79.41-1.72.12-2.36-2.25-5.03-2.54-9.94.88-14.78-6.59,4.1-7.43,7.74-4.01,15.32-3.4-1.41-4.8-4.45-3.94-8.4.88-3.99,3.6-6.66,6.79-9.02,3.77-2.78,6.93-5.94,8.39-10.47,1.84-5.69-1.02-13.56-6.23-16.67-.85-.5-1.83-.93-2.65-.21-.65.57-.04,1.32.37,1.84,2.8,3.56.88,6.54-1.34,9.38-2.14,2.75-4.86,5.14-6.64,8.07-3.12,5.14-5.89,10.53-3.84,16.89-2.17-2.89-2.5-6.04-1.59-9.36,1.64-5.99,2.73-12.12,4.51-18.09,1.84-6.16-.88-9.23-7.44-9.19-2.75.02-5.52-.17-8.25.11-5.87.6-10.59-2.28-15.52-4.47-1.82-.81-3.49-2-5.14-3.13-2.22-1.51-5.22-1.51-6.28-5.27-.52-1.84-3.82-4.37-6.37-6.06-1.16-.69-2.33-1.53-2.67-3.32h0ZM710.64,322.47c.26,6.42-3.99,11.61-3.74,18.55,2.51-3.36,4.56-5.86,6.33-8.55,2.89-4.42,2.29-6.79-2.59-10h0Z"/><path class="cls-1" d="M631.45,734.49c-.81.07-1.61.18-2.41.2-1.38.02-3.36,1.21-3.51-1.39-.11-1.99,0-3.83,2.9-4.24,12.81-1.82,25.52-1.33,38.13,1.37,2.45.52,4.98,1.31,4.68,4.63-.08.92.44,1.38,1.52,1.47,1.83.15.68-1.67,1.95-2.28,3.06,5.07,8.42,8.64,9.31,15.12.31,2.26,1.61,4.81,3.31,6.39,2.81,2.64,6.92,2.89,10.64,3.04,4.3.18,7.65-1.93,10.33-5.28,4.78-5.95,10.52-10.95,17.02-15.19,4.91-3.2,10.33-4.88,16.13-5.17,16.96-.86,33.68.4,49.84,5.91,1.86.64,3.58.96,4.13,3.48.29,1.34,1.83,3.06,4.65,1.78,1.58-.73,3.1,1.85,3.64,3.5,1.06,3.28,1.91,6.65,2.49,10.03.85,4.91.74,4.92,5.81,4.27,1.16-.15,2.42-.06,3.54.24,1.82.5,3.97,1.05,4.2,3.23.22,1.99-1.92,2.38-3.26,3.23-.8.51-1.66.9-2.49,1.37-1.2.68-1.39,1.16-.15,2.25,4.36,3.87,4.98,7.34,2.47,12.77-.45.96,0,1.43.42,2.14,2.68,4.76,1.4,7.71-3.85,9.31-30.73,9.36-62.22,15.28-94.08,19.68-16.98,2.34-33.97,3.55-51.12,2.68-6.76-.34-12.86-2.58-18.86-5.1-9.55-4-18.47-9.18-27.61-13.95-2.25-1.18-2.91-2.66-2.7-5.01,1.34-14.88,2.55-29.77,5.26-44.5.6-3.27,1.04-6.62,1.06-9.93.02-3.1.62-5.18,4.41-5.05.75.03,1.51-.39,2.27-.6-.04-.13-.07-.27-.1-.41h0ZM753.16,739.8c-2.98,0-5.99-.2-8.95.04-5.25.44-9.69,2.28-12.05,7.31-1.76,3.76-3.57,7.52-5.58,11.17-2.06,3.74-4.9,6.53-9.9,5.93-.98-.12-2.28-.55-2.9.65-.67,1.3.45,2.12,1.18,3,4.36,5.24,10.54,6.91,17.04,7.71,14.57,1.79,29.15,3.39,43.71,5.15,1.31.16,2.29-.03,3.32-.74,6.52-4.45,13.06-8.88,19.6-13.3.99-.67,1.89-1.38,2.35-2.52,2.67-6.63-.28-13.85-6.97-16.89-1.61-.74-3.28-1.38-4.97-1.94-11.63-3.86-23.67-5.3-35.88-5.57h0ZM764.88,787.08c-2.62-2.34-3.32.79-4.96.91-4.76.35-9.64,1.65-14.28.56-6.38-1.5-12.62-.05-18.9-.25-2.03-.06-3.98.33-5.41,2.12-1.71,2.14-4.99,1.98-7.05.06-3.21-2.98-6.93-5.02-11.56-5.05-5.65-.03-11.3,0-17.15-.63,4.23-3.05,9.07.67,13.15-1.93-13.53-1.56-27.08-2.09-40.81-2.19.35,1.76,2.19.86,2.57,2.59-13.02-2.25-25.94-2.18-38.91-.85,7.2,1.73,14.47,2.94,21.7,4.28,24.16,4.48,48.5,7.62,73.07,8.92,13.56.72,26.98-.1,39.98-4.37,3.01-.97,6.09-1.89,8.57-4.17h0ZM735.05,803.64c-32.8.76-65.24-3.31-97.76-7.1,2,1.57,4.09,2.85,6.23,4.05,9.48,5.33,19.53,9.95,30.54,9.72,9.72-.2,19.54.24,29.24-1.41,7.63-1.3,15.35-2.23,23.01-3.39,2.91-.45,5.94-.36,8.75-1.88ZM657.85,771.23c8.55.74,16.13-1.45,22.22-7.43.99-.97,2.02-2.05,1.19-3.65-2.91-5.54-4.86-11.52-8.4-16.76-1.51-2.23-3.23-4.27-5.86-5.41-4.67-2.01-21.1-2.94-26.77-1.25,6.16-.64,11.63-.21,17.05.7,2.04.34,4.81.65,2.41,3.84-.84,1.12-.41,2.26.7,3.01,2.41,1.62,4.15,3.77,5.6,6.18.75,1.25,2.91,1.88,2.47,3.56-.63,2.39-2.86.64-4.29,1.08-1.51.47-3.25,1.05-3.63,2.5-.42,1.58,1.53,1.78,2.62,2.31,1.64.82,2.05,2.04,1.91,3.71-.14,1.7-.73,3.27-1.34,4.75,1.27.79,2.78,0,4.04,1.38-3.61.54-6.76,1-9.91,1.47h0ZM786.27,788.45c0,1.39,3.87.86,1.65,3.08-1.35,1.36-4.81.81-6.42-.65-.19-.17-.67-.28-.88-.17-4.43,2.28-9.34,3.7-13.79,6.49,1.41.8,2.5.66,3.52.38,11.46-3.21,23.25-5.32,34.41-9.51.9-.34,2.44-.13,2.18-1.7-.21-1.24-1.51-1.33-2.51-1.63-1.25-.37-2.39.11-3.42.68-3.32,1.85-6.91,2.42-10.68,2.37-1.38-.02-2.87-.32-4.07.65h0ZM710.35,773.58c-1.08-2.15-2.77-2.69-4.74-2.77-5.47-.22-10.95-.45-16.43-.64-1.31-.05-2.65-.1-3.72.86-.48.43-1.47.57-1.11,1.5.25.63.98.56,1.54.6,2.49.17,4.99.41,7.48.44,5.55.07,11.09.02,16.97.02h0Z"/><path class="cls-1" d="M342.59,125.59c-.19-6.08-.53-12.14-1.54-18.18-.63-3.71-.37-7.56-.56-11.34-.03-.62.27-1.39-.77-2v5.21c-1.42-3.1-1.5-6.33-1.4-9.55.14-4.03-.15-7.99-1.09-11.94-2.55-10.78-.36-20.8,5.49-30.3-.62-.98-1.91.72-2.39-.28-.59-1.23.91-1.39,1.47-1.99,6.48-6.95,13.41-13.39,21.97-17.98,1.28-.68,1.92-1.87,2.18-3.04.61-2.76,3.23-3.53,5.09-4.94,1.51-1.15,2.71.43,3.42,1.55.96,1.51,2.05,2.4,3.97,2.31.24-1.43-.58-2.34-1.17-3.3-2.72-4.46-2.37-6.27,1.72-9.66.58-.48,3.27-.62.71-2.28-.4-.26.82-.94,1.39-1.23,3.53-1.77,7.23-3.01,11.22-3.38.24-.02.53-.12.71-.03,3.28,1.56,6.46,2.5,9.06-1.09,3.21,1.07,6.47-.42,9.69.21.47.09,1.1.39,1.39.21,5.51-3.42,11.32.59,16.87-.7,1.87-.43,2.68,1.38,4.24,1.43.41,0,.68.36.25.66-3.55,2.42.39,2.44,1.34,3.5-4.83,2.23-9.76,2-14.69,1.08-7.53-1.41-14.03,1.37-20.54,4.38-.85.39-2.63,3.47-3.32-.43-.1-.58-2.59-.48-2.66.46-.25,3.67-2.27,6.56-4.78,9.8,3.24-.24,4.26-2.42,6.24-3.44.24,1.25.06,3.29,2.14,1.1,1.2-1.26,2.44-2.38,4.51-.65,1.52,1.28,3.17-.29,4.49-1.14,3.37-2.15,7.04-3.36,11-3.94,1.76-.26,3.55-.12,4.68,1.14,3.56,3.96,8.26,5.64,13.49,6.38-.52,1.28-1.72.52-2.3,1.37,6.92,2.77,13.07,6.47,16.91,12.94,3.62,6.09,6.48,12.45,7.78,20.35-2.27-3.08-2-6.43-4.9-8.84.38,3.12.76,5.69.98,8.28.09,1.03.8,2.57-.91,2.87-1.27.22-2.25-.87-2.6-2-1.54-4.95-5.58-8.2-9.19-11.42-4.7-4.21-10.88-6.4-16.91-8.59-3.49-1.27-7.26-1.73-10.52-3.63-.78-.46-1.8-.45-2.33.22-2.29,2.93-5.96,1.84-8.8,2.95-5.91,2.32-12.57.82-18.32,3.63-.59.29-1.4.13-2.12.22-3.47.43-6.84,1.05-9.22,3.92-3.57,4.32-9.09,6.75-12.08,11.66-.79,1.3-1.84,2.49-1.91,4.03-.15,3.03-.29,5.8-3.93,7.3-1.56.65-1.23,2.84-.99,4.46.53,3.67.47,7.33.1,11.01-.35,3.45-.53,6.91-3.76,9.31-.52.38-.86,1.16-1,1.81-1.62,7.46-3.2,14.93-2.84,22.71,8.13-6.12,17.58-5.36,26.93-5.4,5.47-.03,10.06,2,14.59,4.51,1.4.78,2.36,1.92,2.77,3.45,1.04,3.9,2.12,7.78,3.07,11.7.32,1.34.43,2.99-1.07,3.7-1.45.7-1.93-.95-2.7-1.72-2.02-2.02-4.41-3.5-7.04-4.65-.97-.42-1.96-.59-2.44.51-.53,1.2.44,1.47,1.42,1.84,2.45.91,4.88,1.92,6.83,3.7.86.78,1.96,1.77.84,2.92-1.26,1.29-1.76-.37-2.49-.91-.66-.49-1.22-1.1-1.79-1.69-.84-.85-1.76-1.93-2.96-1.71-1.61.31-.72,1.92-1.05,2.92-.66,2-.97,4.39-4.21,2.85-.82-.39-1.63-.2-2.36.32-3.04,2.17-4.3,1.89-5.85-1.35-.15-.31-.19-.7-.41-.96-.86-1,.58-3.75-2.04-3.15-2.34.54-3.48,2.77-3.92,4.98-.41,2.08,1.2,2.81,2.99,3.12,1.86.31,3.75.53,5.95.83-1.37,1.31-2.54.72-3.73.5-3.77-.72-7.62-.61-10.62,1.76-2.79,2.2-5.9,1.76-8.34.87-1.76-.64-1.45,1.09-2.19.92-2.85-5.91-1.8-12.42-4.05-18.27-.37-.96-.4-2.04-1.2-2.83l.09.11h0ZM366.79,119.95v-.22c-.36,0-.72,0-1.08,0-6.59.13-13.32,0-14.61,8.56-.08.52-.74.94-.9,1.47-.34,1.13-2.1,2.24-.93,3.31,1.1.99,2.74.15,4.03-.47.85-.4,1.63-.96,2.4-1.5,5.05-3.6,10.5-6.39,16.7-7.68,1.04-.21,1.73-.39,1.38-1.79-.26-1.02-.36-1.73-1.64-1.71-1.77.05-3.56.02-5.35.02h0Z"/><path class="cls-1" d="M489.29,288.55c1.58-.44.69-2.01,1.62-2.54,1.16.14.22,1.36,1.28,1.67.38-1.02.77-2.05,1.16-3.08.4,5.29-4.04,9.5-1.74,15.74,1.87,5.1,3.48,10.02,7.2,14.27.75-.9.33-2.71,2.08-3.56,0,5.64.02,11.1,0,16.58,0,2.69-.9,5.66,3.11,6.81,1.86-3.88-2.31-8.23-.21-12.44,3.05.45,2.68,2.62,2.56,4.55-.23,3.7-.25,3.73,3.85,2.72.23-1.07-1.98-.22-1.29-1.41.35-.59.9-1.49,1.88-1.39.86.09.98.89,1.2,1.54,1.61,4.96,1.72,10.32,4.59,14.95,1,1.61-.53,2.44-1.79,3.18-6.5,3.77-13.6,4.99-21.02,4.13-5.7-.66-11.22-2.16-16.56-4.29-2.37-.95-3.03-2.2-2.31-4.52,3.11-10.14,4.69-20.6,6.8-30.94.52-2.56-.38-5.39,1.68-7.81.44-.52-1.34-2.53-1.63-3.94-1.59-7.42-1.94-14.78,1.54-21.89.97-1.96.72-4.04.34-6.1-.4-2.19-.23-4.36.52-6.46.2-.55.43-1.16,1.17-1.07.75.1.8.78.85,1.34.14,1.71.24,3.41.37,5.34,1.41-.49,1.4-1.69,2.03-2.39.81-.92.67-3.17,2.05-2.79,1.45.4,2.24,2.29,2.32,3.97.04.9-.29,1.81-.44,2.71-.15.94-.49,1.54,1.1.74,1.5-.76.77.86.69,1.34-.67,3.77-2.19,7.26-3.9,10.69-.66,1.32-1.79,2.51-1.09,4.37h0Z"/><path class="cls-1" d="M735.41,234.77c.18-1.97.26-2.94.35-3.9,1.45,2.4,3.74,4.32,3.81,7.27.13,4.97,1.53,9.84.37,14.94-.68,2.93-.14,3.04-4.14,3.29-.69.04-1.54-.22-1.83.62-.1.3.21,1.01.5,1.13,3.61,1.45,3.56,3.58,2.18,6.79-2.68,6.28-5.08,12.71-5.28,19.65-.03,1.13-.13,2.42-1.14,3.17-1.42,1.05-.7,1.95-.07,2.96.46.74,1.53,1.42.65,2.39-.68.74-1.73.65-2.7.63-1.24-.03-1.64-.91-1.77-1.84-.51-3.76-1.13-7.52-1.37-11.3-.49-7.44-.02-14.94-2.16-22.26-1.3-4.4-3.93-7.92-7.39-10.77-2.24-1.86-3.31-5.46-7.32-5.02-.59.06-.97-.68-.74-1.32.25-.69.87-.62,1.48-.52,1.02.17,1.88,1.07,3.36.5-3.9-3.17-8.42-3.74-13.01-3.95-2.29-.1-3.89-.82-4.68-2.98-.89-2.39.03-4.36,2.18-5.16,2.02-.76,3.03,1.29,3.92,2.71.59.95.61,2.22,2,3.01.85-1.53-.43-2.97.13-4.53,2.48-6.93,9.31-9.63,16.7-6.33,3.34,1.5,7.1.44,8.9-2.53.52-.86,1.17-1.58,2.23-1.45,1.31.16,1.04,1.37,1.28,2.18,1.09,3.84.91,8,3.58,12.6h0Z"/><path class="cls-1" d="M771.08,159.14c.34,2.6-1.19,3.79-2.7,4.83-2.82,1.93-5.74,3.73-8.63,5.56-2.12,1.34-3.53,3.23-5.2,5.45,2.45.04,4.22-.71,5.42-1.81,6.25-5.77,14.26-9.26,20.63-14.86,2.05-1.82,3.54-4.5,6.85-4.6.8-.03,1.81-.77,2.33.05.65,1.03-.44,1.67-1.17,2.2-3.69,2.72-7.83,4.88-10.98,8.26-.44.47-1.32.69-1.08,1.64,1.41.36,2.1-.81,3.09-1.34.8-.43,1.68-1.38,2.46-.26.59.84-.37,1.49-.97,1.99-2.67,2.3-5.52,4.49-7.04,7.71-1.48,3.16-3.72,5.36-6.98,6.97-2.87,1.42-4.94,3.7-5.95,6.98-.79,2.56-2.34,5.01-5.05,6.44-1.54.82-2.34,2.23-1.28,3.76,2.04,2.92,2.43,5.52-1.11,7.46,1.1,1.66,2.58.14,3.5,1.07-.8,2.69-.42,5.81-3.34,7.53,1.03,1.42,1.8-.42,2.85.32-2.85,2.37-1.7,6.25-4.07,9.07-2.02,2.4-4.25,1.52-6.42,1.55-1.95.03-2.77-1.42-2.9-3.28-.33-4.71.91-9.31.75-14.03-.13-4,.09-7.98-.6-11.98-.64-3.69.1-7.44,1.69-10.79,2.42-5.11,4.87-10.23,8.52-14.72,1.32-1.62,3.2-2.41,4.92-3.38,4.2-2.35,7.54-5.94,12.43-7.78h0Z"/><path class="cls-1" d="M119.78,761.06c-.83-4.93,2-8.41,5.41-10.02,11.56-5.46,21.33-13.37,31.94-20.13,4.03-2.56,8.62-3.9,13.08-5.51,1.29-.46,2.52-.93,2.56,1.34.03,1.4,1.58,2.19,2.52,3.21,3.15,3.44,2.69,7.36-1.19,10.06-.68.47-1.44.83-2.06,1.36-2.14,1.83-4.91,2.79-6.2,5.79-.74,1.71-3.2,2.7-5.75,2.85-3.89.22-7.66,1.35-11.66,1.33-3.02,0-4.81,2.76-6.94,4.56-1.28,1.09-2.95,1.36-4.18,2.06-5.16,2.97-10.66,2.38-16.16,2.46-.43,0-.85.37-1.39.63Z"/><path class="cls-1" d="M307.33,136.09c.44,4.14-1.17,7.3-2.33,10.51-4.1,11.29-8.8,22.38-15.21,32.62-2.61,4.16-4.14,8.95-7.68,12.57-.97.98-1.84,2.53-3.37,2.16-1.21-.29-.73-2-1.19-3.04-.41-.94-.53-2-.7-3.02-.19-1.17.34-1.91,1.6-1.54,3.01.92,2.3-.73,1.79-2.27-.9-2.7-1.29-5.61-.1-8.13,2.81-5.97,2.28-12.38,3.03-18.58,1.27-10.59,6.14-18.68,16-23.79.63-.33,1.27-.65,1.93-.9,5.79-2.19,6.03-2.03,6.21,3.4h0Z"/><path class="cls-1" d="M728.49,467.58c-.91-5.29-5.78-7.53-8.32-11.3-3.09-4.58-5.44-9.66-8.27-14.46-5.36-9.09-10.28-18.42-16-27.3-3.23-5-6.23-10.38-11.42-13.99-1.84-1.28-2.72-2.84-1.67-5.05,1.15-2.4-2.31-3.02-2.1-5.21.86-1.03,1.84.76,2.8.07.15-.64-.47-.7-.83-.85-5.62-2.4-6.34-3.51-6.18-9.53,0-.22-.06-.45-.09-.67-.14-.86-1.89-1.78-.33-2.51,1.37-.65,2.16.68,2.6,1.76,1.32,3.3,5.03,4.24,7.1,6.87,1.97,2.51,3.73,5.25,6.53,7.16,2.39,1.64,1.7,4.9,3.29,7.07,2.67,3.67,5.22,7.43,7.88,11.11,1.97,2.73,4.07,5.39,6.06,8.11.47.64,1.25,1.54,1.08,2.08-1.15,3.68,1.5,6.07,3.05,8.8,4.39,7.77,8.91,15.49,13.38,23.23.58,1.01,1.05,2.14,1.86,2.93,2.06,2.01,3.01,3.78.3,6.12-1.64,1.4-1.42,3.47-.72,5.56h0Z"/><path class="cls-1" d="M380.81,238.06c10.28,6.29,19.56,14.35,31.55,17.31,12.01,2.97,24.05,1.56,36.24-3.23-.96,2.3-2.32,2.79-3.46,3.05-3.88.88-5.86,4.25-9.02,6.04-.44.25-.95.98-.88,1.4.62,3.64-1.68,2.73-3.63,2.15-2.93-.87-5.92-.64-8.9-.68-5.24-.08-10.34-.72-15.45-2.1-3.26-.89-6.76-.76-9.65-2.96-1.33-1.01-1.63.32-1.55,1.27.13,1.6.46,3.17.77,5.2-6.84-8.6-11.84-17.72-16.02-27.45h0Z"/><path class="cls-1" d="M447.83,122.59c.27.2.53.4.81.58.96.66,3.02-.37,3,1.57,0,1.03-1.16,1.74-2.26,1.93-1.66.29-3.18-.17-3.99-1.65-.41-.76-.3-1.78-.46-2.86-1.71.52-1.21,2.09-1.79,3.12-1-.47-.63-1.38-.7-2.06-.23-2.31-1.6-2.03-2.96-1.13-2.14,1.45-4.3,2.97-5.34,5.44-.37.88-.63,1.76-1.68,2.06-1.24.36-2.68,1.25-3.7.22-.85-.87.52-1.82.88-2.73.16-.42.32-.83.49-1.3-1.23-.74-3.17.41-3.71-1.51-.5-1.77.73-2.74,1.8-3.84,9.26-9.41,20.42-11.69,33.04-7.99,1.94.57,3.5,2.39,6.04.94-.12,3.13-.38,5.69,2.66,7.62,1.56.99,1.92,2.99-1.55,3.61-5.73,1.02-11.31,2.88-17.18,4.07,1.2-1.72,3.55-2.84,2.25-5.24-1.28-2.41-3.74-.66-5.65-.86h0Z"/><path class="cls-1" d="M485.92,234.8c3.55-6.11,10.12-9.92,13.11-16.39.35-.76.83-2.01,2.01-1.51,1.21.52.33,1.59.17,2.42-1.75,9.42-5.97,18.08-9.07,27.08-.49,1.42-.73,2.96-2.88,3.48-1.78.43-2.12,2.41-2.1,4.04.02,2.31-1.2,3.9-2.82,5.34-.87.77-1.86,1.03-2.96.51-1.18-.57-1.31-1.61-1.04-2.66.3-1.23.86-2.39,1.13-3.62.62-2.75.56-5.32-2.62-6.73-1.53-.69-2.25-1.96-2.69-3.47-.26-.88-.53-1.8-1.02-2.56-2.56-4.02-2.76-4.28,1.46-6.68,5.63-3.19,9.82-7.94,14.96-11.8-1.02,4.59-4.54,8.04-5.65,12.56h0Z"/><path class="cls-1" d="M657.21,324.98c2.13,2.59,1.51-3.52,3.71-.93-.77-.48-1.59-.89-2.29-1.44-1.22-.96-1.86-2.49-1.16-3.65.65-1.04,2.18-.23,3.28.17,1.63.59,3.21,1.47,5.35,1.08-3.06-2.56-7.82-1.73-10.56-5.72,6.45.92,12.03,2.05,16.73,5.52-2.52.64-1.83,1.78-.26,3.14,4.42,3.81,5.45,8.41,3.4,13.72-1.03,2.65-3.12,4.58-4.85,6.73-1.13,1.41-2.66.91-4.17.04-5.65-3.29-9.65-7.41-8.8-14.38.16-1.33-.23-2.71-.38-4.28h0Z"/><path class="cls-1" d="M267.97,317.4c0-2.24.51-4.35,1.27-6.43.82-2.24,1.23-4.09,4.86-3.31,2.4.52,2.67-2.84,3.49-4.69.3-.68-.08-1.6.06-2.37.15-.87.92-1.61,1.72-1.49,1.3.19.81,1.22.41,1.87-.62,1.01-.69,1.9-.02,2.89,3.27,4.8,4.54,10.27,5.82,15.75.29,1.26.18,2.52-.37,3.71-1.86,4.04-4.54,7.5-8.07,10.35-1.12.9-2.25,1.53-3.27-.06-3.19-4.99-5.81-10.18-5.9-16.22h0Z"/><path class="cls-1" d="M464.16,101.16c-1.98-1.77-3.81-1.82-5.53-1.36-5.05,1.34-10.17,2.51-15.04,4.34-7.09,2.67-13.98,5.84-20.96,8.82-.78.33-1.69.84-2.11-.25-.48-1.23-.07-3.39.55-3.45,1.47-.14,1.33-1.03,1.5-1.73.39-1.55.71-2.79,2.94-1.93.73.28,1.96-.27,2.41-1.19,1.2-2.44,3.66-3.38,5.93-4.16,6.61-2.27,13.38-4.07,20.28-5.4,3.83-.74,9.42,2.44,10.02,6.3h0Z"/><path class="cls-1" d="M261.03,173.51c-3.42-.99-7.04,2.01-11.22,2.1-.89.02-1.42.77-1.72,1.57-.73,1.93-1.52,3.85-2.17,5.81-1.06,3.18-3.45,4.52-6.4,3.19-2.97-1.34-2.32-3.85-1.28-5.92,1.5-2.98,3.22-5.91,5.25-8.58,4.92-6.44,10.95-7.43,18.02-3.21.73.43,1.48,1.02,2.3.59,3.01-1.62,3.37,1.4,4.41,2.57,1,1.13-.51,1.77-1.6,1.86-1.54.11-3.1.02-5.59.02h0Z"/><path class="cls-1" d="M257.52,320.95c1.01,1.75.11,3.14.47,4.48.19.7.5,1.41,1.33,1.45.99.04.98-.79,1.04-1.47,0-.11-.02-.24.02-.34.52-1.5-.23-4.29,2.08-4.01,1.48.18,1.04,2.96.96,4.66-.06,1.36-.17,2.72-.3,4.58,1.47-1.53.63-3.53,2.28-4.56.57,2.99,3.39,4.23,5.12,6.28,1.74,2.07,3.07,3.47.98,6.15-1.48,1.91-2.15,4.42-3.13,6.68-.81,1.88-2.42,3.25-4.26,3.21-1.89-.04-2.1-2.2-2.52-3.74-1.19-4.26-.67-8.69-1.4-13-.12-.71.47-1.67-1.04-2.17-1.55,3.27,1.32,6.37.46,9.56-2.12-2.75-3.29-12.3-2.08-17.77h0Z"/><path class="cls-1" d="M249.55,198.31c1.73-2.88,4.44-2.91,7.04-1.88,3.07,1.23,6.02,2.82,8.82,4.56,2.74,1.71,2.94,9.44.51,11.46-.66.55-1.4.83-2.29.82-5.29-.07-9.65-2.33-13.68-5.35-.82-.61-.79-1.41-.19-2.12.62-.74,1.32-.36,1.86.11,1.77,1.5,3.87,1.71,6.06,1.45,1.05-.13,1.83-.61,1.58-1.83-1.09-5.41-2.77-6.64-9-6.72-.17,0-.35-.24-.72-.5h0Z"/><path class="cls-1" d="M735.99,445.8c4.55,8.45,7.06,17.37,6.47,26.95-.11,1.71-3.58,3.79-5.36,3.2-.86-.28-2.09-.95-2.17-1.58-.14-.97,1.07-1.32,2.06-1.45.84-.1,1.61-.35,2.38-1.23-1.73-1.17-3.65-.74-5.39-.82-.79-.04-1.8-.24-1.74-.66.09-.6.28-1.68,1.37-1.7.95,0,2.19.34,2.35-.88.18-1.34-1.69-.83-2.26-1.81-.74-1.27-2.85.1-3.66-1.4.41-.79,1.32-.17,1.52-.42,1.36-1.62,4.39,3.2,5.08-1.38.29-1.9.93-3.4.38-5.63-.88-3.54-.81-7.4-1.03-11.23h0Z"/><path class="cls-1" d="M358.09,210.97c-1.27-.29-1.19-1.99-2.45-1.58-3.35,1.12-3.84-1.62-5.26-3.33-5.3-6.42-1.57-14.06-3.2-20.97-.15-.65.07-1.49.93-1.66,1.07-.21,1.6.61,1.68,1.39.73,7.02,5.87,12.77,6.17,19.94.09,2.1,2.56,3.63,2.13,6.21h0Z"/><path class="cls-1" d="M212.66,238.38c.64-1.17.94-2.41,1.75-3.07,1.22-.98,2.15-3.25,4.38-1.81,1.73,1.12,1.84,5.18.25,6.59-.97.86-2.15,1.67-3.48,1.63-6.42-.16-12.29-1.76-16.53-6.78-1.32-1.57-.8-3.46.68-4.6,1.4-1.09,3.02-.26,4.14.88.62.64.85,1.62,1.27,2.43.42.83,1.34,2.24,1.75,1.92,3.79-2.84,3.85,1.77,5.79,2.8h0Z"/><path class="cls-1" d="M232.96,219.54c5.95,7.67,4.73,15.28.47,22.91-.7,1.26-1.78,2.3-3.47,1.8-1.6-.49-1.49-1.89-1.46-3.17.06-2.07.05-4.18.87-6.11.24-.58-.59-3.23,1.92-1.42.35.25.59-.86.57-1.38-.06-2.38.82-4.69.05-7.16-.53-1.75.44-3.59,1.06-5.47h0Z"/><path class="cls-1" d="M643.42,455.74c-3.54-1.9-5.88-4.91-8.03-8.08-5.04-5.2-8.39-11.48-12.15-17.56,2.9,3.74,7,6.32,9.91,9.99,2.89,3.64,6.52,6.77,9.28,10.36,2.91,3.79,8.54,4.3,10.24,9.15-2.95-1.72-5.74-3.62-9.26-3.86h0Z"/><path class="cls-1" d="M727.42,300.73c.56-1.3-1.43-3.79,1.45-4.37,2.76-.56,3.64,1.73,4.27,3.7.92,2.83,1.65,5.72,2.36,8.62.39,1.58,0,2.39-2.06,1.85-5.22-1.38-5.8-2.19-6.03-9.79Z"/><path class="cls-1" d="M407.6,185.66c-4.17-.49-8.14-1.51-11.76-3.66-2.02-1.21-1.67-2.25.09-3.26,2.02-1.16,4.16-1.04,6.14-.03,3.18,1.61,6.31,3.19,10.02,3.27.66,0,1.6.12,1.6.99,0,.41-.64.91-1.11,1.19-1.5.91-3.07,1.77-4.99,1.51Z"/><path class="cls-1" d="M755.43,422.7c.62-1.86,4.48-4.27-.83-4.22-.15,0-.45-.53-.41-.78.08-.61.55-1.08,1.17-1.15,3.86-.44,7.37-1.99,11.03-3.06,1-.29,1.31.24,1.52.91.27.84.22,1.83-.92,1.8-2.13-.05-2.14.93-1.52,2.37.83,1.97.04,2.53-2.01,3.28-2.59.94-5.02.92-8.03.85h0Z"/><path class="cls-1" d="M745.66,242.12c-.45-1.75-1.14-3.17-2.17-4.67-1.94-2.79-1.69-6.13-.89-9.31.48-1.88,2.24-1.39,3.6-1.26,2.45.25,4.8.74,4.69,3.92-1.31,1.01-1.84-2.21-3.19-.57-.93,1.14-.45,2.11.56,3,.16.14.15.68,0,.88-1.82,2.38-1.66,5.33-2.6,8Z"/><path class="cls-1" d="M497.04,277.73c-1.28,8.26,3.93,16.92-1.81,24.37-2.09-7.94-.28-16.18,1.81-24.37Z"/><path class="cls-1" d="M342.54,125.5v5.35c-3.96-11.21-5.09-22.88-6.35-34.55,3.19,9.56,3.69,19.64,6.41,29.28,0,0-.06-.08-.06-.08Z"/><path class="cls-1" d="M647.24,297.29c3.67.78,5.61,2.56,7.22,4.74,1.77,2.39,1.23,4.53-1.16,6.15-1.03.7-2.1,1-3.3-.42-1.85-2.2-3.82-4.2-3.12-7.51,2.52,1.44,1.68,4.89,4.79,6.91-1.61-3.59-2.9-6.46-4.44-9.87h0Z"/><path class="cls-1" d="M580.87,394.08c-2.05-.52-4.11-1.04-6.17-1.55-.97-1.27-2.69-2.81-1.54-4.13,1.23-1.4,2.46,1.29,4.6.97-1.85-3.71-8.16-4.35-7.37-10.55,1.76,3.96,5.01,5.3,7.35,7.48,1.91,1.79,3.93,4.52,3.13,7.78h0Z"/><path class="cls-1" d="M419.12,205.23c-9.51.1-18.79,3.55-29.14,2.53,2.13-2.3,4.57-3,6.59-4.29.52-.33,1.44-.14,1.43.49-.07,3.55,2.38,2.02,3.91,1.73,5.66-1.11,11.46.66,17.21-.46h0Z"/><path class="cls-1" d="M631.42,432.32c-.39-2.32-1.92-4.28-2.79-6.54.44-.05.82-.13.83-.09,2.36,6.32,8.24,10.39,11.28,16.28.33.64.86,1.31.19,1.84-.84.67-1.22-.21-1.58-.76-2.5-3.67-5.56-6.8-9.35-9.3-.78-.51-2.25-1.42-1.26-2.41,1.23-1.21,1.17,1.46,2.68.99Z"/><path class="cls-1" d="M761.4,321.11c1.5.59,1.68,2.27,1.87,3.34.99,5.47,2.18,10.87,3.77,16.2.06.22.18.52.08.67-1.04,1.53.95,4.64-1.26,4.75-2.21.12-.37-2.55-.73-3.98-1.64-6.51-2.88-13.12-4.26-19.69-.09-.46-.14-.9.53-1.29Z"/><path class="cls-1" d="M707.67,528.18c0,1.03-.39,1.73-1.03,2.28-1.74,1.54-3.47,3.12-5.28,4.57-.81.64-1.93,1.29-2.89.41-.88-.81-.07-1.68.42-2.44,1.51-2.39,3.57-4.27,6.01-5.74,1.41-.85,2.48-.73,2.77.93h0Z"/></svg>